/* XPM */
static char *df4380e443974f73b65f07ff6f6e5ca4SDoGMvKJKAWpiRTV[] = {
/* columns rows colors chars-per-pixel */
"51 64 156 2 ",
"   c #020105",
".  c #05030B",
"X  c #08040F",
"o  c #070510",
"O  c #0A0612",
"+  c #0D0915",
"@  c #0C051B",
"#  c #0E0A19",
"$  c #100C17",
"%  c #110C1C",
"&  c #13101F",
"*  c #0E022B",
"=  c #140E21",
"-  c #180F24",
";  c #10052B",
":  c #161124",
">  c #191226",
",  c #181527",
"<  c #171028",
"1  c #1A1229",
"2  c #1C1229",
"3  c #1E132B",
"4  c #191429",
"5  c #1C152B",
"6  c #1B152C",
"7  c #1C162D",
"8  c #1E182F",
"9  c #0F0130",
"0  c #130335",
"q  c #15023B",
"w  c #1A033D",
"e  c #1A093C",
"r  c #1E1730",
"t  c #1E1631",
"y  c #1F1931",
"u  c #21162F",
"i  c #23093C",
"p  c #221631",
"a  c #211832",
"s  c #221834",
"d  c #231A37",
"f  c #251935",
"g  c #241B37",
"h  c #271B3A",
"j  c #231C39",
"k  c #261D3A",
"l  c #261F3C",
"z  c #291B3B",
"x  c #2A1D3D",
"c  c #2A1F3F",
"v  c #29203E",
"b  c #170243",
"n  c #1C0443",
"m  c #1D0B42",
"M  c #1C024D",
"N  c #1D0153",
"B  c #1F0159",
"V  c #220645",
"C  c #220946",
"Z  c #23064C",
"A  c #24094B",
"S  c #29094C",
"D  c #221544",
"F  c #281046",
"G  c #2A1E41",
"H  c #2C1E41",
"J  c #261249",
"K  c #2C124D",
"L  c #301F45",
"P  c #230353",
"I  c #2A0653",
"U  c #250854",
"Y  c #2A0B50",
"T  c #23025C",
"R  c #29055C",
"E  c #2D085C",
"W  c #2B2041",
"Q  c #2F2143",
"!  c #2F2044",
"~  c #2F2248",
"^  c #302042",
"/  c #322247",
"(  c #312348",
")  c #34234B",
"_  c #33244A",
"`  c #33244C",
"'  c #35254F",
"]  c #39264E",
"[  c #392751",
"{  c #250164",
"}  c #2B0364",
"|  c #26016B",
" . c #2B026C",
".. c #320866",
"X. c #32056C",
"o. c #33086C",
"O. c #3A0A6D",
"+. c #2D0273",
"@. c #2F0279",
"#. c #330474",
"$. c #380776",
"%. c #350972",
"&. c #3C0C75",
"*. c #34037B",
"=. c #3A067D",
"-. c #3D0A7C",
";. c #410E75",
":. c #420D7D",
">. c #47127B",
",. c #4A157D",
"<. c #4B1C7C",
"1. c #360481",
"2. c #3B0583",
"3. c #3E0982",
"4. c #3E0588",
"5. c #400786",
"6. c #430C84",
"7. c #490F86",
"8. c #42068A",
"9. c #440A8B",
"0. c #490D8D",
"q. c #461182",
"w. c #4C1584",
"e. c #4E1B82",
"r. c #4C128B",
"t. c #4F1B89",
"y. c #531D87",
"u. c #52168D",
"i. c #531B8C",
"p. c #470790",
"a. c #470992",
"s. c #4C0D93",
"d. c #500E96",
"f. c #500E98",
"g. c #4E1292",
"h. c #531495",
"j. c #551A93",
"k. c #591B95",
"l. c #54139A",
"z. c #59169C",
"x. c #56199B",
"c. c #5B1B9C",
"v. c #611E9E",
"b. c #5C2093",
"n. c #5E229B",
"m. c #62219D",
"M. c #5B17A0",
"N. c #5E1AA2",
"B. c #611DA3",
"V. c #651FA9",
"C. c #691FAA",
"Z. c #6422A5",
"A. c #6825A6",
"S. c #692BA0",
"D. c #6A24AC",
"F. c #7026AF",
/* pixels */
".       O O + ` r O h ' r         + O = _ 1 + G ) 1       . # X p ! = % ( / =       X + X c W O 1 ( W ",
"  = f = O # ! : O : ( % .   > a % O % ( % X 7 _ + .   7 u % X 1 ! # . f ! O . X a 7 # O a z + O G h X ",
"% ! Q a : : 7 % X X 1 X   3 / G 7 % 1 6 # . O 5     a ( z 7 # 7 > #   # >     z ~ h 7 + 7 : +   % =   ",
": h = % # .   .   . O     r s % % O .   .   . X     k 6 % % O .       X X     c : $ % . . .   . X .   ",
"% % O O : # X # ( > .   X % $ X # = # . 3 ! % .   O % % X % = + . h c O     + % + X = % O . Q s X     ",
"+ + 7 h / c % . 4   > = X # O s c / c O # =   5 # O + # s G / a   : # X 3 + + + = s ! ^ 7   4 . # 1 O ",
"  7 ( : $ : 7 X   % h 7 X   f ! % # 4 4     : c 1 X   c G % + 7 :     5 k : . O Q h $ # r %   . y f % ",
"7 = = $ % k r X . % % O = , > = % 4 l 1 . X % $ O > : > % + 8 l :   O = % O 7 % > % + s j %   + = + O ",
"% .   X X % O % % # + O y # X   X X % O % # # X % 7 + . . X O % + % + # X > 1 O   . X O % + % + # . 7 ",
"% a % + o # = [ H 4 u % O : p # O O # 3 [ c : a $ O 7 p O O O $ h ' h : p % X a 3 + O O % ! ' a > 5 # ",
"f ! > . + # 4 k O O p 7 # c H # . O # p f O O s 1 = ! c O X O % s 7 X % f - > ~ f X O O : f - X - f # ",
"4 6 X + % > O $ O     # O r : X + : % O $ O .   # + s + X O 4 + + $ . . X O # f O O X 8 O + % . . O O ",
"+ . O   O 7 : % + . + % # + . + . + a % . . . . . O + . + . % s + . . . . . + X . O . : 7 $ % X O % % ",
".   .   + O 1 Q 1 % c Q r C n w 0 w w e Y V ; q w A Y V q q n 0 A A * * ; # O       X + % c k O p / h ",
"  3 H 7 O % W : O = ! % i O.;.O.M T T N X.{ T { e.w.:.:.T T { M } } M M w %   O c h $ O h s + O k f X ",
"- / h 4 6 % : $ . . : X w ,.>.T T :.7.#.6.%.T $.r.r.b.X.T -.7.%.&.&.M P S o   Q G 7 8 + : % O   # #   ",
"= r $ + X     . % O X   0 X.R X.r.6.-.| t.u. .{  .=.%.} 6.r.-. .&.y.X.M w     s % % O       % # X     ",
"% $ O : f 7 + # / = .   * B } k.:.T T | { 3.h.#.T  .| j.h.| B { T X.q...q X # $ + # a p = . Q r .     ",
"O O h r z s # . %   a 5 w X.r.r.{ { +.*.#.{ 0.h.0.9.0.c.%.{  .#.#.T  .>.Z O O O 1 h h h :   = . = f + ",
"  f / : $ 6 s X   : a > e T #.+.| { 0.h.l.+.| 2.8.@.*.1.+. .=.s.j.#.N } Z % . + _ s % % j :   X a 7 % ",
"y O X + % k > X . + + X e { 6.7. .| 5.B.x.2.@.8.9.*.5.h.$.| *.l.k.=.T X.Z O 8 % X O O s a +   + + O # ",
"+ X   O . + O p 7 % + + D B %.x.r.@.9.x.D.6.| @.@. .#.z.c.#.2.0.A.r.T T b X # O . X . X # > p : % O 6 ",
"- H > O O % 4 [ f : k = C :.{ :.A.j.s.D.0.| r.c.4.l.$.*.Z.Z.9.Z.h.{ X.w.U % . H f O O + : ! ! 1 7 a + ",
"k k % . X + : 7 O X = a V u.r.{ -.g.a.r. .9.C.g.*.x.B.=.+.h.0.r.| %.u.,.b # 7 W 1 X X X & 5 % X + 7 % ",
"% > X + % 4 O + O     . 0 &.S.r.{ @.*.{ r.l.6.| @.*.Z.Z.#.+.*.| #.h.:.P q   X y X + O a # + %   . . . ",
"+   o   O 1 = 7 = . = p m #.0.0.*.0.a.2.l.4.{ | { 2.s.l.2.4.s.*.s.7.T N b O # .   X . % 4 > 1 X + 7 6 ",
".   O   + X f k = = ! c K 7.r.9.| *.*.+.s.2. .*.j.M.l.l.*.*.1.| 4.6.{ T N < O   X . O O = c 7 + k ! r ",
"  f ) s X > W = O # c + S i.j.=.{ 9.0.*.9.*.+.8.Z.B.D.s.| 2.s.=.2.=.T } R #   # ) Q % O k s $ X r p . ",
"1 / 1 = 7 O O +   . # . w 6.&. .r.l.s.*.Z.x.+.*.4.s.g.+.2.N.s.2.r.n. .N P X   _ s % 8 O + O X   O O   ",
"% 4 # O X     O p % .   0 { } h.h. .| +.#.g.l.#.{ *.| g.N.=.{  .{ -.7.} q . . 7 % + O .     3 > X     ",
"$ # O r L h # + G # .   w  .r.c. .|  .*.#.+.z.h.0.4.9.V.6.{ | @.#.{ -.q.Z . + $ + : c c 1   c 1 .     ",
"X O Q 7 5 > O   O   c s q } -.=.| | 8.p.s.#.#.9.a.1.2.9.+.+.=.8.0.#.T o.P = X X u c 7 > =   O   > H % ",
"+ s c = % s k O   : 1 $ e | =.-.+.| s.D.N.*.@.a.s.1.2.0.*. .2.N.A.$.T %.P @ + % ! 6 $ , l >   O y % % ",
"6 X   O # a = X . O + X e T :.z.6.@.8.z.V.9.+.*.1.+.3.N.h.@.2.a.B.0.{ { b X 6 #   X X 7 6 O   O + O = ",
"O O . O   + O c c > # # J X.{ r.D.g.s.D.c.+.3.g.2.9. .6.F.c.8.N.v.%.{ :.Z O O + X O . X + r Q 8 % + , ",
"3 ' 7 X # % 7 ' 3 % Q : A u.:.| r.l.d.x.+.=.D.c.2.B.z.+.=.B.s.c.#. .r.i.M = X ( c O O # > / z % p k O ",
"k r O X O # $ % X . . 7 0 -.m.:.{ *.*.| 3.z.h. .+.2.D.n.| @.*.+. .r.r.R q o 7 k # X X # $ % + . . : % ",
"% = O O % 7 % + O .     0 #.j.g.@.9.8.*.l.0.| | | *.x.B.2.2.a.*.0.0.{ N q   X 4 X O X 8 : O +   .   . ",
"O   .   O = # c 1 . 1 H J 6.9.5.+.2.1.#.l.9.| #.2.s.f.s.*.*.8.+.9.0.T N P % #       . $ = p h O % c f ",
". . % . + X c r + > _ 7 K u.k.6.{ =.2.@.2.*.#.2.D.V.B.z. .#.4. .=.#.{ } P : X   + O + O 3 c = + c Q = ",
"O c ' f + > f % O O p O n w.q.} 6.l.l.2.c.g.| 2.s.g.c.#.#.z.l.2.r.j.{ T I O   3 ' W : + s 7 % . > > . ",
"> H : % : X X O   . O . 0 } T 6.h.-.#.+.q.z.5.| | *. .=.z.0.#. .X.r.:.P q     ! 7 % 4 O o X .   X X   ",
"% : + X O . . + G : .   0 { -.m.#.{ { @. .#.N.0.$.*.=.Z.r.{ {  .} { q.:.m X O 4 # X O . . . h p X     ",
"$ + % h ) Q % O f O X . w  .7.6.{ | 2.2.9.| =.s.s.2.6.h. .| $.2.5. .T &.P X + $ + 6 ( ( 7   s # X X . ",
"  = / : # % % .   O c f q { #.#. .{ 0.Z.c. . .8.a.*.*.2.@.| -.z.m.#.N X.P = . X c c % O : O     7 Q % ",
"= 7 s % = s s O   - : + 0 T 6.u. . .2.l.l.9.+.*.=.+.5.z.-.| *.0.h.6.{ { b o = % l > # r l :   O 6 % + ",
"> X   O + 1 % X   O + O D T T u.k.-.6.c.v.%. .-.#.#.{ 7.Z.q.=.r.m.&.N ..n X 4 O   X X : : X   X + X 1 ",
"O % X + . + + ) / 7 % $ F >.} } i.u.0.k.o.| j.j.*.j.:.| w.k.6.k.&.T O.,.M # X % O O X X % z ) f % % : ",
"a ' 7 . # $ a / + O c 4 0 &.w.R T X.#.} } 6.u. .{ &.k.:.N #.#. .T o.>.E 0 + % _ H O O # > Q r O 7 c + ",
"y 7 O O + = + $ O .   > * P <.&.N } } T ;.-.N N B { <.y.} T  .T ..&.P q 9   : k O X X : + # + . . % + ",
"% # O X # 7 = O X . . . @ e V n q C A C Y w 0 0 * n A V b n S n S n * * @   O % X O X 4 4 O O . . . . ",
"X   .   O % + ! 7 X s ( 7 .       + + % / > o k / 1       . # O 7 Q % % H Q =       . $ + h c O : ! c ",
". % u % O O Q : X > _ = .   - p % O # / % X 7 _ + .   3 5 % O > ! # X k Q + . X 7 1 # O a c + O c z O ",
"% ! / a : : r % X X 6 X   > ! H r % 1 6 % . O 6     p ( c 7 + 7 1 + . # >     h ( h 4 + y : +   % =   ",
": k : % # . . .   . X     r s % % O X . .   X O     c 7 % = O X . .   . X     W 1 % % . . .     X X   ",
"% % O O = + X # / 1 .   X % % X + % + . 3 ! % .   O = $ . % % O . h v O .   O : + X % # O . Q f .     ",
"# + 5 k _ W $ X 6   = % X # O p l ( c O % : . 1 # O + + a W ( s . : # X > O + + = s ! / 7   6 X + : O ",
"  3 ( : % : 6 X   # k r X   p ( % # 1 :     = c 4 X   c c % + 7 =     4 c : . O Q h % # 7 #   . y k % ",
"6 > > $ = l y X . % % O = : 1 = % 1 k 6 . X = $ O : = 3 = # 7 k :   O = % O 4 % 3 % + s k %   + = # O ",
"% X   X X % + % O + O O y # .   X O % O % O # O % 7 + . . X O % O # O # X > 1 O . . X + % + + O + . 8 ",
"% p % + X # % [ ! 4 7 % O : p + O O % 1 [ H : p $ O 7 3 O O O % f ] l : 7 $ X p 1 + X O % Q ' s > 5 # ",
"f / > . + # 5 c O O a 7 # c ! % X O $ y f O O h 1 = Q c O X O % s u X % f = : ( f X O + : k > X > f # ",
"6 7 X + % : O $ O .   % O y : X + : = + $ O . . $ # f # O O 4 + + % X . o # % k O O O 7 O # % . . + O ",
"# X + . + r > . X . . . X # X + . # s % . X . . . + +   + . % s + . . . . . + + X O . : a O X . . . . "
};
