/* XPM */
static char *e5e7afb9c1984faaffcb62af1789c0a5mLQ27VVlrf86Ncc5[] = {
/* columns rows colors chars-per-pixel */
"64 64 171 2 ",
"   c #A59D6C",
".  c #A99F6C",
"X  c #AAA46D",
"o  c #AEA96F",
"O  c #ADA574",
"+  c #AFA871",
"@  c #B2AB76",
"#  c #B5AD7A",
"$  c #B9AF7B",
"%  c #BBB277",
"&  c #BBB37D",
"*  c #C0B77E",
"=  c #C1BB7F",
"-  c #B7B584",
";  c #BDB581",
":  c #BFB884",
">  c #BEBB88",
",  c #C0B782",
"<  c #C3BB85",
"1  c #C5BD8A",
"2  c #C9BE8C",
"3  c #C7BE95",
"4  c #CABE93",
"5  c #CDBF98",
"6  c #C7C186",
"7  c #C9C087",
"8  c #C7C08A",
"9  c #CBC38D",
"0  c #CFC98E",
"q  c #D0C78E",
"w  c #D2CB8F",
"e  c #C5C191",
"r  c #CDC592",
"t  c #CFC892",
"y  c #CDC599",
"u  c #CDC99A",
"i  c #D1C694",
"p  c #D3CB95",
"a  c #D8CF95",
"s  c #D2C69A",
"d  c #D5CD9A",
"f  c #D9CE9C",
"g  c #D6D195",
"h  c #DAD296",
"j  c #D7D19B",
"k  c #DBD39D",
"l  c #DED99E",
"z  c #E0D79D",
"x  c #E2DA9F",
"c  c #CFCCA2",
"v  c #D4CDA1",
"b  c #DACEA2",
"n  c #DCCEAA",
"m  c #D6D1A2",
"M  c #DDD4A3",
"N  c #DED8A2",
"B  c #DED5AA",
"V  c #DED8AA",
"C  c #DDD7B0",
"Z  c #DED9B2",
"A  c #E0D6A4",
"S  c #E2DAA5",
"D  c #E8DFA4",
"F  c #E1D6AA",
"G  c #E5DBAB",
"H  c #E9DEAD",
"J  c #E2D7B1",
"K  c #E1DAB0",
"L  c #E1D9B2",
"P  c #E3DCB0",
"I  c #E3DCB2",
"U  c #E4DDB1",
"Y  c #E5DEB0",
"T  c #E5DCB3",
"R  c #E6DDB2",
"E  c #E5DEB2",
"W  c #E5DCB5",
"Q  c #E5DEB4",
"!  c #E6DFB5",
"~  c #E5DCB2",
"^  c #E8DDB0",
"/  c #E9DEB1",
"(  c #EADFB1",
")  c #EADFB2",
"_  c #E9DDB2",
"`  c #E7DFB8",
"'  c #E6DEB9",
"]  c #E7DFBB",
"[  c #E3DEBC",
"{  c #EEDFB8",
"}  c #E7E1A6",
"|  c #E9E0A7",
" . c #EAE1A6",
".. c #E7E0AB",
"X. c #EAE0AB",
"o. c #E8E1AD",
"O. c #EBE1AC",
"+. c #EAE0AD",
"@. c #EBE1AE",
"#. c #EEE5AE",
"$. c #EBE2AD",
"%. c #EFE9AF",
"&. c #E6E0B0",
"*. c #E7E0B6",
"=. c #E7E1B1",
"-. c #EBE0B3",
";. c #EFE5B2",
":. c #EAE6B7",
">. c #ECE5B7",
",. c #EFE4B6",
"<. c #ECE3B3",
"1. c #EEE9B2",
"2. c #E6E2BC",
"3. c #E8E0B9",
"4. c #EAE3B9",
"5. c #EBE7B8",
"6. c #E9E0BC",
"7. c #EEE6BF",
"8. c #ECE4BB",
"9. c #ECE9BC",
"0. c #F1E7B6",
"q. c #F1E6B4",
"w. c #F2EAB5",
"e. c #F1E6B8",
"r. c #F1E7BA",
"t. c #F4EAB9",
"y. c #F4EBBB",
"u. c #F8EEBD",
"i. c #F3F0BD",
"p. c #FBF2BE",
"a. c #FDF8BE",
"s. c #EFE5C1",
"d. c #EDE6C2",
"f. c #ECE8C5",
"g. c #EEEBCD",
"h. c #F1E4C1",
"j. c #F3E7C1",
"k. c #F2E5C2",
"l. c #F0E6C2",
"z. c #F3EAC5",
"x. c #FAEFC1",
"c. c #F3EACA",
"v. c #F5F1C1",
"b. c #FBF3C5",
"n. c #FCF3C2",
"m. c #FFFBC4",
"M. c #F7F3CD",
"N. c #FAF6C9",
"B. c #FBF4CA",
"V. c #FBF7CA",
"C. c #FDF4CB",
"Z. c #FDF4CD",
"A. c #FDF5C9",
"S. c #FCF8CB",
"D. c #FEFACD",
"F. c #FFFBCE",
"G. c #FFFCCC",
"H. c #F6F2D5",
"J. c #FFF7D4",
"K. c #FAF6D0",
"L. c #FFFAD3",
"P. c #FFFAD6",
"I. c #FFFED5",
"U. c #FFFED1",
"Y. c #FFFCD9",
"T. c #FFFDD9",
"R. c #FFFFDB",
"E. c #FFFFDC",
"W. c #FEFCDC",
"Q. c #FFFEE3",
"!. c #FFFDE9",
/* pixels */
"2 1 i H A S S F S A H M k k M A H H o.S k k k j p p p p h k k k G Y H o.S j j M m s u d p k l h M k M M v ,.D.B.D.:.2 r t t k h ",
"9 2 s A A S G G G S G M M k A M G G G A k k k j p p p d h k k k G Y H H S k M M d v v v f j l x A M M m m ,.B.B.G.5.r 9 1 9 d j ",
"k f k k k f M M M M F G H S H d < 2 < 9 d p d p p t t p p d p p P ' Y =.H S G V 6.B.Z.A.b.M j d M M M M m M V V V m j M k k D  .",
"S A A f M f M A G F M G G G / i & , $ 1 p p p p p p p p p d p s Z ' W Y H G Y V s.T.E.T.I.M k M f M M M M M d d d j M N M A o.#.",
"A A k d k d k A F M M G / H -.r ; < $ 2 d s p p p p p s p d p s Z ] ' W Y Y Y G 6.T.T.J.L.m b M k M M M M M M M M k M M j M o.X.",
"M M k f k d f M b M F G / / H r ; : ; 1 s s p s t t t p s p p s L 6.6.*.Y P W L s.T.E.T.P.B d d M M M k k j p j j j M N M M ;.o.",
"A A A G H H H e.e.e.,.A M M M d r i i s d d d d j d j j j j j j B Z B V G V G V W l.l.l.l.J F S A M j M M k p p d p d d p d t.0.",
"S S G 0.<.,.0.x.n.b.x.A d d j f k f k k f j j j k k k k k k k M m m m m V G Y G G J J J J J / -.,.M p j j s t t t t t d s d p.p.",
"F G G -.0.<.,.n.u.p.p.M d k p f f j f f d p g g j k k k k k k k M M M M M S S S G G G G H / / H H M f k j d p p p 0 p t s d p.t.",
"G S H ,.y.,.e.n.n.n.p.A p f d k j k a j j d g d k l l k l k k k N N S S S G S G G G H G H H H H H M f f d p 9 9 9 9 p s p k n.n.",
"M f M S G S G o.-.o.G M j k k g d d p j k k k g p d d d j j j j 9 < 8 < t N k M M A A A S G G G H S M A A k k k k j d d f d A A ",
"s r y f f s f f k j d k M A S d p p p h k x A k 9 9 9 9 p d d g & o o X & k p d g h j j k S G G H H H H o.X.X...X.S j k k d , & ",
"t r u f f d d d j k d M M k S j i p i f A A A k t t 9 t p d d j & o @ + : j p d g j j j k S G S G o.<.H H H H G o.D k k k j , , ",
"9 9 s d d d j j j k j M A M N j i i i d M M N k r 9 r t s d d d & + + + , j j j j k k j k S H S G H <.o.H -.-.H o.G k d j j * < ",
"p d d p p p d k k M k k M M M j d f f M A A S N s s s s k M M M < $ @ # 1 d d d d j j d k S G G H S S G G F M A M M S k A A , * ",
"} } l g d j k S G <.H k d p j S H / H H H H o.H G H G G H Y H / d p s i s s t t t p p s f S H H H k d b f 4 < 1 , s 0.q.0.X.9 9 ",
"x D x p j j d H G -.H M f M s S / H / / H / H H G G G G _ / _ / f r t s t t t t s d u d s G G G G b f b f 2 < < , s 9.,.,.o.7 9 ",
" . .S d d d f H G -.S m d f f S -./ / H G H G G G G J J T T _ _ b i s s t t 9 9 9 p s s i H / S ) b s b f r < < ; i 9.r.y.-.7 7 ",
"S A N j d j k S H -.G P b v B B / H G / -.<.<.o.H G G G _ / _ / b i s i t p p t p p p d j A G G A f d b d 9 < < < s -.,.;...7 6 ",
"d p d k M N k d t r y z.T.E.E.d.s d f A H o.o.H M M M M M M B M k d d f N #.1.#.$.k j k j 2 1 2 2 r s p p t 9 p 9 s S M k k < < ",
"r 8 p N N N k t u u u K.E.Q.Q.[ y p d A <.<.<.o.S S A A M M M M M f d d D t.t.t.$.l l k k 7 < < 1 t p t 0 p d d p p k j j d < < ",
"t r d S N N N u u u u M.T.W.Q.f.s d i M @.o.@.H M M M M M M M M k d p p S w.w.w.$.k k l k 7 < 8 < t p 0 9 w p t s d k k k a < , ",
"r 9 p N N M N s u y y M.E.Q.Q.2.s d t k ;.$.#.o.N N A M M M M M d j j j G w.t.t.#.l k M j 1 < 1 2 9 t w w w p s s p j k k d < < ",
"< , 8 k S N M r r y r W ' W 2.c > 8 , s D S D A j k k j d s s d d g g p j l j k A S S S H ,.y.,.9.S d g k k M B F A A k z k i s ",
"& & 2 M A M M r y r 3 v m v m e ; ; & 9 D N S A d j d j p p p p p g g d d d p d M -.H Y -.G.D.D.A.H j k l S H G Y G M M A k M k ",
"& & < k M M M y 5 5 4 M M k M 9 , : & 9 D S S k d j d j p p p d d h g d d j j f M -.G H Y A.A.A.D.H k k k N H Y W Y F A S M b f ",
"% & 7 M F F b 5 5 5 r f k k k 9 & ; & 9 S D D A j j d d t p 9 0 d g p p d k k b M / Y _ ,.D.D.G.b.H k k k M H W L L B B S M v f ",
"9 7 p k b b B b b b d k j h h w 9 t t s k j j j M N M A G o.X.X.l k j j d s s s d F M B M -.H ..Y M M M M M G G L W 6.6.6.W B B ",
"k k j j f b M F / H S M j h k h k N k j p p t d D D D $.p.n.n.n...N M S k i i s r f f f s s t t p M S M M B V B B W z.z.z.7.Y Y ",
"k k k j f f f S H H G M f f j k k M k j p p p d G D D ..p.a.p.p...M M S f t y i s f k k j d p g t k S M M S V M B W c.c.c.s.Y Y ",
"k k j s p d j o.S G S k f f j k M M M f t p i p G H G X.p.a.n.n.o.M M M f r r r d d d d g p p g p k S M M V B M B W c.c.c.z.Y Y ",
"M M M d M M f G H o.H M M M M M M M S k t d p d G H H G t.t.t.t.S M M B M M S M f p p t d p g g d k M M M M m B B J s.8.s.7.V S ",
"N S M F B B F { ,.,.,./ H / G G F F F M d p p d H / / G F M M M f f d s <.U.G.U.v.> 2 : < k M k M d p p d k M b n n M M k k k M ",
"A S M A B F F 8.{ ) ) _ H H G F F F F M d p p f H / _ J F B M A b f d u <.G.G.G.9.- 1 > < k M M M d p g d f M b n b M k z k k M ",
"S S M A m B B _ ,.,.,.H G H G G F F F M d s d f / / / J F M M M m f s s =.G.G.G.v.> > ; 1 k k k M d d d d f M b b b M k z k M k ",
"k k k S B B F ) ) ) ) G G G G A M A A k f d d f H H G G F M M M p d d f -.m.G.G.:.8 1 < 8 k A k S j d f d k M k M M k k k k A A ",
"< < 7 j f f b F G G S M M M M k f f k k k M M M i i s s s s d d M k k d j N M k S j N k k #.w.w.#.A f k k M A M A M k k f M H H ",
"= , 7 k M M M G S S A k f k k f j a f k M M M M i i i p p d d d d k k k k N N k k k N N k #.w.#.w.S k M M M S M A M f f f k @.@.",
"< , 7 M k k M S G G S k k k k k h h j k M M M b s p p p p p s s f k k k k k M k N N j k k #.w.#.q.A k M M m B B B m f f d f @.@.",
"< : 8 k f f M S G G S k f k M j a h j M M B m m s i p p p p d d f k k k k k N k k N k N k $.w.w.q.A k k M m V C C V f M d f @.H ",
"k k M M M m M # # # # f G G F d 7 9 2 f ,._ _ Y f f f j j k b b H @.;.@.;.;.;.#.o.G D S } k k j k k j k m 5.T.H.W.f.d j d d M k ",
"S S S M M B M O   . . f H G / k < 7 < f ,.,.,./ b f f f k M M M <.0.t.q.t.y.w.t.#.....X.X.j j j j k l j j 9.Q.W.Q.g.c j p d k k ",
"S S A M B S M O O O   f ,.F G s 2 8 < f ,.,.<.H f f f j k M M M o.,.0.;.0.t.w.t.;.G ..X...d s d p k l j j 9.Q.Q.!.g.v j g g k j ",
"S S F B M M f @   . X d ,.G / b 1 1 1 j o.;.;.-.f j j j f f k f ;.y.t.t.w.w.w.t.t.X...G S k d d k j j j j 9.E.Q.Q.c.m p d g k k ",
"f d M G F G B r i i i d d i s s d p p k N M N N k M M M k k k k A G G S G S S D D k N k A 1.1.1.1.k g g p N 2.[ [ Z u p p w 7 8 ",
"r r f G G H o...q.H H r 1 2 4 b G S N k g p p d k k M M k k j j M A A M M k k k j d j j N a.m.m.m.N p p t u y y y u r p p 9 & # ",
"i r f H S G S G S A H r 2 y 2 s A M M k g g g h k k M M k j d d M A A M M k j k l j k g k a.m.m.m.k t s p d p p d d p p p 9 ; , ",
"i 9 d H G H G H X.D X.9 < 1 1 d S M M k g g g g k M M M k j j j M A A A A k k l k g k g k a.m.m.G.k p s s p i p p d p p d 9 & & ",
"f k k A G S S M M k l j d d f M M N N k p g p j N k S N p 9 0 0 d p p p j N k k k j j j k X.#.#.@.A f f f k M k k j t p d 9 7 < ",
"q.q.H S A M k p p s p } t.w.t.S M N N k s p p d A N D k < & & & < < 8 8 p k M N k j j d p p p 9 p f A S A S H H G N t 9 p 9 d d ",
"q.0.H A M A M d s j d $.1...w.G M N S k p p p d D N A M 1 < < ; < < 8 < t k M k k j k k j p s s s k G S M S G G G M s p p s d d ",
"<.<.H A M A M p s p p $.w.#.y...l l S k p p p d S D G N ; # ; ; < 1 8 1 s M M M M d f k d p s p p k A M M S G G G M s 9 t s s d ",
"/ <.H G F S M t d t d N D G S N k h k h p p p d M M M M r r r r 4 r r 4 d G G F G M b M f p p d t k S S G F F G S M f p d f d f ",
"A S G G G H S s t 7 9 & @ @ @ < d w p w p p p d j s s k <.y.y.,.H G F A -.y.y.y.0.G S H G S S S N S S S G M d f f M S G H S d s ",
"F F G Y G G S r t 9 t & @ $ @ 1 p q w w p d p d s d f f ,.y.y.y.G F M M -.y.y.y.e.H G H G S A A D D N N H M s d f M H H H G d d ",
"F F G / G H G u r t t & @ # @ 1 d p p p p p p d s d d s y.y.t.y.H F M F ,.y.y.y.0.H G H G S S S k D G S G M f M f M H G G F v v ",
"F F S G G H B p t t t & # # @ 8 d s p s s p p d d p d d q.t.y.t.G M M M / y.t.y.t.S S G S S A A N D S S H M s f s M G G G A b v ",
"F F M b b M M d s d j t 9 t 9 f M M M f f d d d k k A k S A S G s r r r d S A G f , ; ; < p d j j S S G H f 2 r 9 i s r i d b B ",
"F S M f d f f d d d j p t s s f B m M f s p s s k k k k A A S S i 2 9 2 s A A S f & ; & ; d j j d S S S H f 2 r 9 9 i t t d M S ",
"F G A b f f f j j j d p t p s f M m M M s p d d A z k z A S S A p 2 9 2 s S A S k $ , & & f d d d S G S H f 2 r 7 9 p s t d M F ",
"S S M f f f f d d d j p t t t M m m B m y s d p k k k M A S S S t 8 7 8 s S M S d # ; & & d d d d G G G H f 2 9 9 7 t t t s M M ",
"M k M A A A M d d p g 9 1 1 1 N b.v.b.,.M M M k 9 t 9 s S o.@.<.k s d p M <.o.;.S 9 t 9 9 k k M f A S S S M d p d d d d p p p s ",
"d p M H H o.G j k d h < < < > ..U.G.U.i.N N N j 7 8 1 9 o.,.<.<.S k k k G t.t.t.-.p d p p M k k M A M M M M M A k k j j d p 8 < ",
"k p M G S G G d j p j < < < ; <.G.G.G.y.N N S k 1 7 2 2 <.<.,.0.A d k k S t.;.;.H s t s p M M M A M M A M M M k k k d d j d 9 8 "
};
