/* XPM */
static char *_db79f37161a48e999a758abb4ebbacdmd4Pd8x134JhGK0m[] = {
/* columns rows colors chars-per-pixel */
"64 64 256 2 ",
"   c black",
".  c #010101",
"X  c #020202",
"o  c gray1",
"O  c #040404",
"+  c gray2",
"@  c #060606",
"#  c #070707",
"$  c gray3",
"%  c #090909",
"&  c gray4",
"*  c #0B0B0B",
"=  c #0C0C0C",
"-  c gray5",
";  c #0E0E0E",
":  c gray6",
">  c #101010",
",  c #111111",
"<  c gray7",
"1  c #131313",
"2  c gray8",
"3  c #151515",
"4  c #161616",
"5  c gray9",
"6  c #181818",
"7  c #191919",
"8  c gray10",
"9  c #1B1B1B",
"0  c gray11",
"q  c #1D1D1D",
"w  c #1E1E1E",
"e  c gray12",
"r  c #202020",
"t  c gray13",
"y  c #222222",
"u  c #232323",
"i  c gray14",
"p  c #252525",
"a  c gray15",
"s  c #272727",
"d  c #282828",
"f  c gray16",
"g  c #2A2A2A",
"h  c gray17",
"j  c #2C2C2C",
"k  c #2D2D2D",
"l  c gray18",
"z  c #2F2F2F",
"x  c gray19",
"c  c #313131",
"v  c #323232",
"b  c gray20",
"n  c #343434",
"m  c #353535",
"M  c gray21",
"N  c #373737",
"B  c gray22",
"V  c #393939",
"C  c #3A3A3A",
"Z  c gray23",
"A  c #3C3C3C",
"S  c gray24",
"D  c #3E3E3E",
"F  c #3F3F3F",
"G  c gray25",
"H  c #414141",
"J  c gray26",
"K  c #434343",
"L  c #444444",
"P  c gray27",
"I  c #464646",
"U  c gray28",
"Y  c #484848",
"T  c #494949",
"R  c gray29",
"E  c #4B4B4B",
"W  c #4C4C4C",
"Q  c gray30",
"!  c #4E4E4E",
"~  c gray31",
"^  c #505050",
"/  c #515151",
"(  c gray32",
")  c #535353",
"_  c gray33",
"`  c #555555",
"'  c #565656",
"]  c gray34",
"[  c #585858",
"{  c gray35",
"}  c #5A5A5A",
"|  c #5B5B5B",
" . c gray36",
".. c #5D5D5D",
"X. c gray37",
"o. c #5F5F5F",
"O. c #606060",
"+. c gray38",
"@. c #626262",
"#. c gray39",
"$. c #646464",
"%. c #656565",
"&. c gray40",
"*. c #676767",
"=. c #686868",
"-. c DimGray",
";. c #6A6A6A",
":. c gray42",
">. c #6C6C6C",
",. c #6D6D6D",
"<. c gray43",
"1. c #6F6F6F",
"2. c gray44",
"3. c #717171",
"4. c #727272",
"5. c gray45",
"6. c #747474",
"7. c gray46",
"8. c #767676",
"9. c #777777",
"0. c gray47",
"q. c #797979",
"w. c gray48",
"e. c #7B7B7B",
"r. c #7C7C7C",
"t. c gray49",
"y. c #7E7E7E",
"u. c gray50",
"i. c #808080",
"p. c #818181",
"a. c gray51",
"s. c #838383",
"d. c #848484",
"f. c gray52",
"g. c #868686",
"h. c gray53",
"j. c #888888",
"k. c #898989",
"l. c gray54",
"z. c #8B8B8B",
"x. c gray55",
"c. c #8D8D8D",
"v. c #8E8E8E",
"b. c gray56",
"n. c #909090",
"m. c gray57",
"M. c #929292",
"N. c #939393",
"B. c gray58",
"V. c #959595",
"C. c gray59",
"Z. c #979797",
"A. c #989898",
"S. c gray60",
"D. c #9A9A9A",
"F. c #9B9B9B",
"G. c gray61",
"H. c #9D9D9D",
"J. c gray62",
"K. c #9F9F9F",
"L. c #A0A0A0",
"P. c gray63",
"I. c #A2A2A2",
"U. c gray64",
"Y. c #A4A4A4",
"T. c #A5A5A5",
"R. c gray65",
"E. c #A7A7A7",
"W. c gray66",
"Q. c #A9A9A9",
"!. c #AAAAAA",
"~. c gray67",
"^. c #ACACAC",
"/. c gray68",
"(. c #AEAEAE",
"). c #AFAFAF",
"_. c gray69",
"`. c #B1B1B1",
"'. c #B2B2B2",
"]. c gray70",
"[. c #B4B4B4",
"{. c gray71",
"}. c #B6B6B6",
"|. c #B7B7B7",
" X c gray72",
".X c #B9B9B9",
"XX c gray73",
"oX c #BBBBBB",
"OX c #BCBCBC",
"+X c gray74",
"@X c gray",
"#X c gray75",
"$X c #C0C0C0",
"%X c #C1C1C1",
"&X c gray76",
"*X c #C3C3C3",
"=X c gray77",
"-X c #C5C5C5",
";X c #C6C6C6",
":X c gray78",
">X c #C8C8C8",
",X c gray79",
"<X c #CACACA",
"1X c #CBCBCB",
"2X c gray80",
"3X c #CDCDCD",
"4X c #CECECE",
"5X c gray81",
"6X c #D0D0D0",
"7X c gray82",
"8X c #D2D2D2",
"9X c LightGray",
"0X c gray83",
"qX c #D5D5D5",
"wX c gray84",
"eX c #D7D7D7",
"rX c #D8D8D8",
"tX c gray85",
"yX c #DADADA",
"uX c gray86",
"iX c gainsboro",
"pX c #DDDDDD",
"aX c gray87",
"sX c #DFDFDF",
"dX c gray88",
"fX c #E1E1E1",
"gX c #E2E2E2",
"hX c gray89",
"jX c #E4E4E4",
"kX c gray90",
"lX c #E6E6E6",
"zX c #E7E7E7",
"xX c gray91",
"cX c #E9E9E9",
"vX c #EAEAEA",
"bX c gray92",
"nX c #ECECEC",
"mX c gray93",
"MX c #EEEEEE",
"NX c #EFEFEF",
"BX c gray94",
"VX c #F1F1F1",
"CX c gray95",
"ZX c #F3F3F3",
"AX c #F4F4F4",
"SX c gray96",
"DX c #F6F6F6",
"FX c gray97",
"GX c #F8F8F8",
"HX c #F9F9F9",
"JX c gray98",
"KX c #FBFBFB",
"LX c gray99",
"PX c #FDFDFD",
"IX c #FEFEFE",
"UX c white",
/* pixels */
"R R R R R R R R R E E R T T E W { } | } } | } { E R T T T R R E ^ ( ^ ^ ( / ~ ^ ^ ( ^ ^ K J H J Y Y T R R R T T K J J J J J J J ",
"R R T R R R R R R R E R R R E W }  . . . . .| } W E R T T R R R ! / / ^ ( / ^ ( ^ ( / ^ K K H K T R R E E R R T K K K K K K K K ",
"R R R R R T R R R R R R R R E W { } | } } } } [ W E R T R E R R ^ ( ( / / ^ ~ / ^ / ^ ~ K J H K T T T R R R T Y H H J J H H H J ",
"W W W E R R R R R R R R R R E E { } } { { } { [ W E R R W W W W ~ / ^ ^ ) ) ( ) ) _ ) ( P L K L T T T R E E E R P I I P L K K L ",
"~ ~ ~ Q E R R R E R R R R R R T R E E E R E E R E R R E Q ~ ~ ! E E R ! ' } { { { } { ] R T U Y R R E W ! ~ ~ ~ ! ! ! Q E T T T ",
"/ / / ~ W R R R E R R R R R R T R E E R R E E R E R R W ~ / / ^ E R Y Q ] ..| | | ..| { W E T R R R R W ~ / ( / / / / ~ W R R R ",
"/ / / ~ W R R R E R R R E E E R Y T R T T R R R E R R W ~ ( / ^ Q W R Q ] | } { { | { [ E R T R T Y T E ~ / ( / ^ / / ~ W T T R ",
"^ / ^ ! W R T R R R R R W Q W W R E E R E W W W W R R W ~ / / ^ E E R ! ' } } } [ } { [ E E T E R T T W ~ ( ( ( ( ) ) / ! W W Q ",
"E E E R R R R T T R R Q ` } { [ E E T Q ' } { { / / ^ ^ ^ ^ ^ / ^ / / ^ Q W W Q E W W W E E R R J L H U ] | [  .{ { } { { { { } ",
"R R R R R T T T W W R Q ]  .} [ ! W R Q ]  .} [ ( ( / / / / / / ^ / / ~ W R R R R R R R R R T T K L H U ] | [ } } | | | } } | | ",
"R R R R R R R E T T Y Q ] ..| { W R Y Q [ .. .} ( ( ( / / / / / ( ( / ~ W R R R T T R R R T T T K K G Y ] ..| ..| |  . .| | |  .",
"Y Y T T Y T T R E Q Q ^ [  .| } W E T Q ' } { { / / / / / / / / ^ ^ ^ ! W E R R T R R R R R R T K J H U ( ] ' [ } | | | | | | | ",
"K K L L K L P I ' { [ [ | | { { ^ / ~ ~ ( ) / ) / / / / / ^ ^ ^ E E E E R R R R T R R R R R R T K K J L U Y Y T { } | | | } | | ",
"G H J H G H J K { ....|  .| } | ( ) ( ^ / ^ ~ / / / / / / / / ^ T R R R R R R E T T R R R T T T J H J J H G H K { } |  .| | | | ",
"J K K J H H K P ] } | } | | { } ^ ( ^ ~ / / ^ ( / / / / / / ^ ^ E E R R R R R R R R R R R R T T K H J L J J L P { } | | | | | | ",
"K L L K J J L I ] } { [ } } [ ] / ( ~ ! / / ~ ~ ^ ^ ^ ^ ^ ^ ~ ~ E R R T T T Y Y E W W W E E R R U K L P L L I P [ { } | } } } } ",
"^ ^ ^ ! E T T R ( ) ) / ! W W W E E E E E E E E E E E E E E E E T E E Y L J K I ` [ } [ ( ~ ~ / Q ~ ~ ! ~ ~ ! ^ ( ( ( ( ( ( ( ( ",
"/ / / ~ W R R R ^ / / ~ W R T R R R R R R R R R R R R R R R R R R E E Y L J K P [ } | [ ) ~ ^ / ^ ( / ^ / / ~ / ( ( ( ( ( ( ( ( ",
"/ ( / ~ Q E R E / / ^ ~ W R R R R R R R R R R R R R R R R R R R T R R U K H J L { |  .{ _ / / ( / ( / ^ ( / ~ / ^ ^ ^ ^ ^ ^ ^ ^ ",
"~ ~ ~ ! W R R R ^ ^ ^ ! W E E E R R R R R R R R R R R R R R R R T R R Y P L L P ` ] ] ` ( ~ ~ ^ ^ / ^ ^ ) ) ( ) ) ) ) ) ) ) ) ) ",
"W W W E R R R R W W W E R R R R R R R R R R R R R R R R R R R R R E E R T Y Y T W Q ! Q E R E W / ( / ( [ { [ { { { { { { { { { ",
"R R R R R R R R T R R R T T T R R R R R R R R R R R R R R R R R R R R R R R R R U Y T T T T R R / / / ) }  . . . . . . . . . . .",
"R R R R R R R R R R R R R R R R R R R R R R R R R R R R R R R R R R R R R R R R T R R R R R E E ^ ^ ~ ( {  .| | | | | | | | | | ",
"W E E E E E E E E R R R R R R R T T T T T T T T E E E E E E E E Q Q W W Q Q W W E E E E E E E E / / ~ ( { | } } } } } } } } } } ",
"^ ^ ^ ^ ^ ^ ^ ^ E R R R R E R T L J K K J K P L / / ~ ) Q ( ~ ~ [ { { } } { { [ ^ ~ ^ / ~ ^ / ^ / / / / ( ( ( ( ( ( ( ( ( ( ( ) ",
"/ / / / / / / / E R T T R R T T L K K K H J L K ~ ^ ~ _ ~ ) ( ) } } | | | | } } ) ^ / ( ^ / / ~ ^ ^ ^ / / / / / / / / / ^ ^ ^ ^ ",
"/ / / / / / / / R R R R R R R T H G J J G H L L ^ ( / ) ^ ( / ( | |  . . . .| | ( ~ ^ / / ( ) ^ / / / / / / / / / / / / / / / / ",
"~ ~ ~ ~ ~ ~ ~ ~ E E R R E E R R P L I P J J L L ! ! Q ~ / ) ( ) | | |  . .| | | ) ( ) ) ^ ~ ^ ~ ^ ^ ~ ~ ~ ~ ~ ~ ^ ^ ^ ^ / ( ( ( ",
"E E E E E E E E R R R R R R R E ~ ! ~ E L H J H P I P T ` { { { | | | | | | | | } { } ' ! R R R E E E E E E E E E E W Q ~ ^ ^ ^ ",
"R R R R R R R R T R R R R R R R ( / / Q P H J H J J H I [ .. . .| | | | | | | |  . .X.[ ! Y R R T R R R R R R R T T T E ! ^ ^ ^ ",
"R R R R R R R R R R E E R R E W ~ ~ / Q I J L L K K K P [ | } } | } } } } } } | } }  .] ! R E W R R R R R R R E R R R W ~ / / / ",
"W W W W W W W W E W Q W W W W Q / ( ) ^ U L P P J L K L [ [ [ { { { { { { { { { } { } ' Q T R T T T T T T R R R E R R W ~ / / / ",
"{ { { { { { { { { { { { { { { { | } { { { { ] ' R R T T I L P U E W W W Q W W W W W W W E R R T L K J P Q / ^ ^ ^ ^ ^ / / / / / ",
"| | | | } } } } | | | } } } } }  .| | | | } { [ W E R Y P J J K R R R E E E E R R R R R R T T T J J H P Q / ^ ^ / / / / / / / / ",
"...... . . . . . . . . . . .| | .. . . . . .| } Q W R Y L H G H T T T R R R R R R R R R R T T T J J H P Q / ^ / / / / / / / / / ",
"{ { { { { { { { { { { { { { [ [ { { [ { { { [ [ W R T Y I L K P R R R R R R R R E E W W W W E E P P L U ! / / / / / / / ^ ^ ^ ^ ",
"( ( ) ) ) ) ) ) ) ) ) ) ) ) ) ) ) ( ( ) ) ) ( ( E R R R T U Y T R R R R R R E E ~ ~ ~ ~ ~ ~ ~ ~ T T U T ^ ( / ( / / / / / / ^ ^ ",
"^ ^ ^ ^ ^ / / / / / / / / / / / / ^ ^ / / / ^ ~ E E R E E R R E R R R R R R R R / / / ( ( / / / E E R E ^ ( / ( ( ( ( / / / / / ",
"( ( / / / ^ ^ ^ ^ ^ / / / / ( ( ( ( / ( ( ( / ^ E R R E E R R E R R R R R R R E / / / / / / / / E W R E ^ / ^ / / / / / / / / / ",
"( ( / / ^ ~ ~ ! ~ ~ ^ ^ ^ / / / ( / / / ( / ^ ^ R T T R E R R E E E R R R E E W ^ ^ ^ ^ ^ ^ ~ ~ R E T R ~ ^ ~ ^ ~ ~ ~ ~ ~ ^ ^ ^ ",
"| } } { I L P K J P K I ! / ~ ( ^ ^ / / / ^ ~ ! P P K I ! / ^ ^ / ! ^ ^ R R W Y E E E E E E E E R E E Y P K K L L L K P R E R E ",
"} } | { P K K K K L J P ! / ~ / ( ( ( ) ( ( / ^ K J H P ! ( / ^ ^ ~ / / R R W E E E E E E E E E R E R Y P K J K K L J L T E T R ",
" . . .[ P H G H H J H P ! ( / ( ^ ^ ^ ^ ^ ~ ~ ! K J H P ~ _ ( / ( / ) / E T R R T T T T T T T T R R T U L J H H H J H K Y R Y T ",
"[ { ] ` I L J K K K K I E ! ! ! ^ ^ ^ ^ ^ ^ ~ ~ K K J P W ~ ! ! ! ! ! ! E E E E E E E E E E E E W W E T U P P P K L K P R W E E ",
"! ! W ~ Y R Y T T T T Y I P P P K K K K K K K K H J H J P P L I P P P Y Q ^ ^ ^ ^ ^ ^ ^ ^ ^ ^ ^ ^ ^ ^ ~ ! Q Q Q Y T Y T ~ ^ ~ ^ ",
"Y R U R T Q R E R T E T J G H H J J K K K J J J H K J H H G F J H H G P ! ( / / / / / / / / / / ( ( ( ( / / / / R E T E ^ ( ^ / ",
"R W Y E T W Y R R Y E R K J L K H H H H H H H H K P L K K J H K K L J P ! / ~ ^ ^ ^ ^ ^ ^ ^ ^ ^ ^ ^ ^ ^ / / / / R E R E ^ / ^ ^ ",
"E ! E Q E Q R Q Q R W E P P U K P P P P P P P I L P L K I P L P J P K I ~ / ^ ) ^ ^ ^ ^ ^ ^ ^ ^ ^ ^ ^ ^ ^ ^ ^ ^ W Q E W / ( / / ",
"{ { { { { { { { { { { { [ [ [ [ { { { { { { { [ [ [ [ [ [ [ [ [ ^ ^ ~ ^ ^ / / ^ W E E R E E E E E E W E R R E W ] { } [ ) ^ ^ ( ",
"| | | | | | | | | | | | } } } } } } } } } } } } | | | | | | | | ( / / / ( ( ( / W E E R E E E E T R R R R R E W { | | { _ ^ ^ / ",
"| | | | | | | | | | | | | | | |  . . . . . . . .} } } } } } } } ( ( / / ( ( ( / E R T T R R R T T T R R T R E E |  . .{ ` / / / ",
"[ [ [ [ [ [ [ [ [ [ [ { } | | | } } } { [ [ [ [ { { { { { { { { ^ ^ ~ ~ ^ ^ ~ ~ E R T R E W W E R R R R R R E E ' ] ] ` ( ~ ~ ~ ",
"L L L L L L L L L L P I T R E E ( ) ( / ~ ! Q ! W W W W W W W W Q W W W W W W E E E E W ! ^ ^ ~ E E R R R R R R Q ! ! Q W E E E ",
"J J J J J J J J J J K P Y R E E ^ / ^ ! W R T R E E E E E E E E R R T R R R R T R R R W ~ / / ^ E R R T R R R T T T T T T T T R ",
"J J J J J J J J H H H L U R R R / ( / ~ W R R R T T T T T T T T R R R R R E R R R T R W ~ / / ~ E R T T R E E R R R R R E E E E ",
"J J J J J J J J J H J L U T R T ~ ^ ~ Q E T Y T W W W W W W W W E E E E W W W E Q W W ! ( ) ) / E R T R E W Q W W W E E W W W E ",
"J J J J J J J J J J J J J J J J K K K L K J K U ' [ { { { } } [ ( ^ ~ / ' { { [ { } { [ { } { ] E R T ! ' { [ } { { { { { { { { ",
"J J J J J J J J J J J J J J J J J J K L K J K I [ } | | |  . .} ( / ^ ) [ |  .} |  . .| |  .| { Q E T ! ] } { {  . . . . . . . .",
"J J J J J J J J J J J J J J J J H H J J J H J L { } | | | | | } ) ( ( ` {  ... .| | | } |  .| } W R Y ! [ ..|  .} } } } } } } } ",
"L L L L L L L L J J J J J J J J K K L L K K L P ] ] [ [ [ [ [ ] ^ ~ ~ / ` ] ] ' [ [ [ [ [ [ [ [ E E R ! ] } { } { { { { { { { { ",
"Y Y Y Y Y Y Y Y K J J J J J J K Y Y T Y Y Y T T L L L P P P P P E E E E Q Q Q Q P P P P P P P P ~ / ^ ^ ) ) ( ) E E E E E E E E ",
"R R R R R R R R K J J J J J J K T E E R R E E R K J J K K J K L R T T T T T T Y K K K L K J K L ~ ( ( ^ ^ ^ ~ ^ E E E E E E E E ",
"R R R R R R R R K J J H H J J K T R R T T R R Y K J H J J H J K R R R R R R T T J J J K J H J L ! / / ~ / / ^ / T T T T T T T T ",
"R R R R R R R R K J J H H J J K T R R T R E R Y L J H J J H J K Y T R R R R R R K J J K K H J P ^ ( / ~ ( ( ^ ~ R R R R R R R R "
};
